<?xml version="1.0" encoding="UTF-8"?>
<!DOCTYPE svg PUBLIC "-//W3C//DTD SVG 1.1//EN" "http://www.w3.org/Graphics/SVG/1.1/DTD/svg11.dtd">
<!-- Creator: CorelDRAW -->
<svg xmlns="http://www.w3.org/2000/svg" xml:space="preserve" width="82.9504mm" height="74.057mm" version="1.1" style="shape-rendering:geometricPrecision; text-rendering:geometricPrecision; image-rendering:optimizeQuality; fill-rule:evenodd; clip-rule:evenodd"
viewBox="0 0 3596.84 3211.21"
 xmlns:xlink="http://www.w3.org/1999/xlink"
 xmlns:xodm="http://www.corel.com/coreldraw/odm/2003">
 <defs>
  <style type="text/css">
   <![CDATA[
    .fil2 {fill:#027AFF}
    .fil1 {fill:#F04142}
    .fil0 {fill:white}
   ]]>
  </style>
 </defs>
 <g id="Layer_x0020_1">
  <metadata id="CorelCorpID_0Corel-Layer"/>
  <g id="_1264892960">
   <polygon id="White" class="fil0" points="-0,3211.21 3596.84,3211.21 3596.84,0 -0,0 "/>
   <path class="fil1" d="M1007.85 1374.47c-4.17,139.66 -12.54,461.48 88.2,543.25 11.07,8.98 1987.5,704.16 2020.63,706.22l2.22 -416.04 -417.9 -150.32c-136.22,-45.39 -279.59,-98.13 -423.55,-148.35 -147.61,-51.51 -279.73,-99.28 -417.18,-147.57 -63.06,-22.15 -389.94,-129.23 -419,-152.16 37.76,-21.51 85.68,-47.88 134.15,-73.02 25.94,-13.46 41.5,-23.39 69.02,-36.1l924.55 -490.55 1.47 -444.07c-49.54,8.89 -1155.76,597.64 -1263.58,658.36l-299.03 150.34z"/>
   <path class="fil2" d="M460.07 440.68c-13.52,102.73 -5.16,959.08 -5.39,1098.74 -1.8,1097.66 1138.57,1695.57 2019.51,1173.1 36,-21.35 117.7,-67.04 138.1,-105.26l-370.04 -132.38c-110.78,-37.31 -83.23,-46.86 -196.47,-10.12 -56.53,18.34 -154.52,31.1 -223.88,33.42 -303.92,10.17 -557.95,-123.04 -715.06,-296.16 -199.12,-219.4 -248.31,-412.12 -248.29,-758.1 0.02,-329.75 11.82,-678.54 -0.79,-1005.86 -0.36,-9.39 -0.84,-11.54 -9.96,-13.98 -41.56,-11.19 -144.92,-17.52 -188.02,-17.43 -3.16,0 -151.47,7.73 -182.34,17.72 -9.28,3 -16.07,6.39 -17.37,16.31z"/>
   <path class="fil2" d="M2663.12 1886.69l42.33 20.25c76.65,27.72 284.16,104 335.87,112.44 87.34,-259.53 78.02,-455.58 78.02,-757.77 0,-125.98 15.21,-766.84 -6.92,-829.51 -9.5,-21.31 -136.58,-26.7 -200.98,-26.7 -29.75,0 -146.79,6.36 -184.75,25.07 -6.55,3.23 -10.43,7.09 -10.59,11.63 -12.39,340.79 2.38,758.42 -0.68,1114.7 -1.73,201.81 -29.67,192.8 -52.3,329.9z"/>
  </g>
 </g>
</svg>
